<?xml version="1.0"?>
<svg xmlns="http://www.w3.org/2000/svg" xmlns:xlink="http://www.w3.org/1999/xlink" xmlns:svgjs="http://svgjs.com/svgjs" version="1.1" width="512" height="512" x="0" y="0" viewBox="0 0 510 510" style="enable-background:new 0 0 512 512" xml:space="preserve" class=""><g><g xmlns="http://www.w3.org/2000/svg"><path d="m406.501 152.068-10.689-32.068h-150.564l-5.248-65.599v-54.401h-100v54.401l-9.751 121.893-35.249 80.568v210.632c0 23.438 19.068 42.506 42.506 42.506h104.988c4.351 0 8.55-.66 12.506-1.88v1.88h75.159c21.969 0 39.841-17.872 39.841-39.841v-75.094c0-40.249 9.515-80.553 27.516-116.554 11.438-22.878 17.484-48.49 17.484-74.069 0-17.833-2.859-35.454-8.499-52.374zm-32.313-2.068 3.852 11.555c3.62 10.859 5.819 22.074 6.611 33.445h-124.651l-10.249-18.706-2.104-26.294zm-119.188 270h-130v-120h130zm-85-390h40v25l.398 5h-40.75l.352-4.401zm-10.248 153.706 7.496-93.706h45.539l7.461 93.706 34.752 79.432v6.862h-130v-6.862zm82.742 296.294h-104.988c-6.896 0-12.506-5.61-12.506-12.506v-17.494h130v17.494c0 6.896-5.61 12.506-12.506 12.506zm97.506-84.935v75.094c0 5.426-4.415 9.841-9.841 9.841h-47.039c1.22-3.956 1.88-8.155 1.88-12.506v-210.632l-13.94-31.862h112.347c-2.145 13.917-6.434 27.512-12.725 40.096-20.073 40.144-30.682 85.088-30.682 129.969z" fill="#802270" data-original="#000000" style="" class=""/></g></g></svg>
